<svg xmlns="http://www.w3.org/2000/svg" xmlns:xlink="http://www.w3.org/1999/xlink" version="1.1" x="0px" y="0px" viewBox="0 0 100 125" enable-background="new 0 0 100 100" xml:space="preserve"><g><g><path d="M41.747,50.732l8.751,2.421c0.067,0.018,0.135,0.028,0.203,0.028c0.165,0,0.327-0.054,0.461-0.156    c0.189-0.144,0.3-0.368,0.3-0.606v-7.15c0-0.343-0.229-0.644-0.56-0.735l-8.819-2.421c-0.231-0.063-0.477-0.015-0.667,0.131    c-0.189,0.146-0.299,0.372-0.297,0.611l0.068,7.15C41.191,50.344,41.419,50.641,41.747,50.732z M49.939,45.849v5.568l-7.233-2.001    l-0.053-5.567L49.939,45.849z M29.429,47.379l8.058,2.235c0.067,0.019,0.135,0.028,0.204,0.028c0.165,0,0.327-0.053,0.461-0.155    c0.189-0.144,0.301-0.368,0.301-0.606v-7.15c0-0.343-0.229-0.644-0.56-0.735l-8.131-2.235c-0.23-0.063-0.477-0.015-0.667,0.131    c-0.189,0.146-0.299,0.372-0.297,0.611l0.073,7.15C28.875,46.992,29.102,47.289,29.429,47.379z M36.929,42.311v5.567l-6.54-1.814    l-0.057-5.567L36.929,42.311z M41.747,61.867l8.751,2.421c0.067,0.019,0.135,0.028,0.203,0.028c0.165,0,0.327-0.054,0.461-0.156    c0.189-0.144,0.3-0.368,0.3-0.606v-7.15c0-0.343-0.229-0.644-0.56-0.735l-8.819-2.421c-0.231-0.063-0.477-0.015-0.667,0.131    c-0.189,0.146-0.299,0.372-0.297,0.611l0.068,7.15C41.191,61.479,41.419,61.776,41.747,61.867z M49.939,56.984v5.568l-7.233-2.001    l-0.053-5.567L49.939,56.984z M29.429,58.514l8.058,2.235c0.067,0.019,0.135,0.028,0.204,0.028c0.165,0,0.327-0.054,0.461-0.155    c0.189-0.144,0.301-0.368,0.301-0.606v-7.15c0-0.343-0.229-0.644-0.56-0.735l-8.131-2.235c-0.23-0.063-0.477-0.015-0.667,0.131    c-0.189,0.146-0.299,0.372-0.297,0.611l0.073,7.15C28.875,58.127,29.102,58.424,29.429,58.514z M36.929,53.446v5.567l-6.54-1.814    l-0.057-5.567L36.929,53.446z M41.747,73.002l8.751,2.421c0.067,0.018,0.135,0.028,0.203,0.028c0.165,0,0.327-0.054,0.461-0.156    c0.189-0.144,0.3-0.368,0.3-0.606v-7.15c0-0.343-0.229-0.644-0.56-0.735l-8.819-2.421c-0.231-0.063-0.477-0.015-0.667,0.131    s-0.299,0.372-0.297,0.611l0.068,7.15C41.191,72.615,41.419,72.911,41.747,73.002z M49.939,68.119v5.568l-7.233-2.001    l-0.053-5.567L49.939,68.119z M29.429,69.649l8.058,2.235c0.067,0.019,0.135,0.028,0.204,0.028c0.165,0,0.327-0.053,0.461-0.155    c0.189-0.144,0.301-0.368,0.301-0.606V64c0-0.343-0.229-0.644-0.56-0.735l-8.131-2.235c-0.23-0.063-0.477-0.015-0.667,0.131    s-0.299,0.372-0.297,0.611l0.073,7.15C28.875,69.262,29.102,69.559,29.429,69.649z M36.929,64.581v5.567l-6.54-1.814l-0.057-5.567    L36.929,64.581z M70.815,45.34l8.751,2.421c0.067,0.019,0.135,0.028,0.203,0.028c0.165,0,0.327-0.053,0.461-0.156    c0.189-0.144,0.3-0.368,0.3-0.606v-7.15c0-0.343-0.229-0.644-0.56-0.735l-8.819-2.421c-0.231-0.063-0.477-0.015-0.667,0.131    c-0.189,0.146-0.299,0.372-0.297,0.611l0.068,7.15C70.259,44.953,70.487,45.249,70.815,45.34z M79.007,40.458v5.568l-7.233-2.001    l-0.053-5.567L79.007,40.458z M70.815,56.475l8.751,2.421c0.067,0.019,0.135,0.028,0.203,0.028c0.165,0,0.327-0.053,0.461-0.156    c0.189-0.144,0.3-0.368,0.3-0.606v-7.15c0-0.343-0.229-0.644-0.56-0.735l-8.819-2.421c-0.231-0.063-0.477-0.015-0.667,0.131    c-0.189,0.146-0.299,0.372-0.297,0.611l0.068,7.15C70.259,56.088,70.487,56.384,70.815,56.475z M79.007,51.593v5.568l-7.233-2.001    l-0.053-5.567L79.007,51.593z M70.815,67.61l8.751,2.421c0.067,0.019,0.135,0.028,0.203,0.028c0.165,0,0.327-0.054,0.461-0.156    c0.189-0.144,0.3-0.368,0.3-0.606v-7.15c0-0.343-0.229-0.644-0.56-0.735l-8.819-2.421c-0.231-0.063-0.477-0.015-0.667,0.131    c-0.189,0.146-0.299,0.372-0.297,0.611l0.068,7.15C70.259,67.223,70.487,67.52,70.815,67.61z M79.007,62.727v5.568l-7.233-2.001    l-0.053-5.567L79.007,62.727z M92.37,28.49v-0.243c0.032-0.125,0.033-0.258-0.001-0.387c-0.07-0.262-0.274-0.468-0.536-0.54    l-31.203-8.532c-0.264-0.072-0.546,0.003-0.74,0.196l-6.698,6.698c-0.135,0.016-0.265,0.066-0.375,0.15    c-0.189,0.144-0.299,0.368-0.299,0.605v3.471l-5.509-1.506V15.592c0.03-0.114,0.033-0.236,0.007-0.355    c-0.061-0.277-0.27-0.497-0.543-0.572L15.27,6.138c-0.259-0.071-0.537,0-0.73,0.187l-7.15,6.908h0    c-0.148,0.143-0.233,0.34-0.233,0.548v53.448c0,0.344,0.23,0.645,0.562,0.735l15.731,4.285v13.031c0,0.344,0.23,0.645,0.562,0.735    l31.412,8.556c0.066,0.018,0.133,0.027,0.2,0.027c0.165,0,0.328-0.054,0.463-0.156c0.051-0.039,0.096-0.084,0.135-0.134    l0.063,0.062l6.798-6.915c0.14-0.143,0.219-0.334,0.219-0.534v-3.513l21.191,5.772c0.066,0.018,0.133,0.027,0.2,0.027    c0.165,0,0.328-0.054,0.463-0.156c0.051-0.039,0.096-0.084,0.135-0.133l0.063,0.062l6.798-6.915    c0.14-0.142,0.219-0.334,0.219-0.534V28.512l0.011-0.011L92.37,28.49z M15.287,7.722l29.516,8.067l-5.697,5.697L9.412,13.397    L15.287,7.722z M45.485,17.26v10.727l-5.392-1.474v-3.861L45.485,17.26z M23.45,70.669l-4.193-1.142l-0.063-9.69l4.256,1.17    V70.669z M23.682,31.283c-0.148,0.143-0.233,0.34-0.233,0.548v27.595L18.627,58.1c-0.23-0.063-0.477-0.015-0.666,0.13    c-0.189,0.145-0.3,0.371-0.298,0.609l0.067,10.271l-9.049-2.465V14.777l29.889,8.141v3.178l-7.008-1.916    c-0.259-0.071-0.537,0-0.731,0.187l-0.869,0.841l-4.171-1.146c-0.23-0.063-0.477-0.015-0.667,0.131    c-0.189,0.146-0.299,0.372-0.297,0.611l0.05,5.322L23.682,31.283z M28.69,26.439l-2.302,2.227l-0.027-2.866L28.69,26.439z     M42.086,89.358l-6.536-1.78l-0.064-9.69l6.6,1.814V89.358z M54.862,92.838L43.61,89.773V79.12c0-0.343-0.229-0.644-0.56-0.735    l-8.131-2.235c-0.23-0.063-0.477-0.015-0.666,0.13c-0.189,0.145-0.3,0.371-0.298,0.609l0.068,10.271l-9.05-2.465V32.828    l29.889,8.141V92.838z M55.398,39.536l-29.694-8.088l5.875-5.683l29.519,8.071L55.398,39.536z M61.778,82.409v4.199l-5.392,5.485    v-51.39l5.392-5.392V82.409z M69.631,83.551l-6.329-1.724V72.18l6.329,1.775V83.551z M83.93,87.446l-12.776-3.48V73.377    c0-0.342-0.227-0.641-0.556-0.734l-7.297-2.046v-5.008l3.254,0.903c0.067,0.019,0.136,0.028,0.204,0.028    c0.165,0,0.327-0.053,0.461-0.155c0.19-0.144,0.301-0.368,0.301-0.607v-7.15c0-0.343-0.229-0.644-0.56-0.735l-3.66-1.006v-2.413    l3.254,0.903c0.067,0.019,0.136,0.028,0.204,0.028c0.165,0,0.327-0.053,0.461-0.155c0.19-0.144,0.301-0.368,0.301-0.607v-7.15    c0-0.343-0.229-0.644-0.56-0.735l-3.66-1.006v-2.413l3.254,0.903c0.067,0.019,0.136,0.028,0.204,0.028    c0.165,0,0.327-0.053,0.461-0.155c0.19-0.144,0.301-0.368,0.301-0.607v-7.15c0-0.343-0.229-0.644-0.56-0.735l-3.66-1.006v-0.958    c0.016-0.062,0.025-0.127,0.025-0.192s-0.008-0.131-0.025-0.195c-0.009-0.033-0.02-0.065-0.032-0.096    c-0.064-0.154-0.176-0.283-0.319-0.366c-0.057-0.033-0.119-0.06-0.184-0.078l-8.723-2.385v-2.891l29.889,8.141V87.446z     M63.301,64.008v-5.56l2.696,0.741v5.567L63.301,64.008z M63.301,52.873v-5.56l2.696,0.741v5.567L63.301,52.873z M63.301,41.738    v-5.56l2.696,0.741v5.567L63.301,41.738z M84.558,34.169l-29.627-8.07l5.724-5.724l29.603,8.094L84.558,34.169z M90.846,81.216    l-5.392,5.485V35.405l0.011,0.011l5.38-5.38V81.216z M21.6,22.945L13.47,20.71c-0.23-0.063-0.477-0.015-0.667,0.131    c-0.189,0.146-0.299,0.372-0.297,0.611l0.073,7.15c0.004,0.339,0.231,0.636,0.558,0.726l8.058,2.235    c0.067,0.019,0.136,0.028,0.204,0.028c0.165,0,0.327-0.053,0.461-0.155c0.189-0.144,0.301-0.368,0.301-0.606v-7.15    C22.16,23.337,21.931,23.036,21.6,22.945z M20.637,29.828l-6.54-1.814l-0.057-5.567l6.597,1.813V29.828z M21.6,34.08l-8.131-2.235    c-0.23-0.063-0.477-0.015-0.667,0.131c-0.189,0.146-0.299,0.372-0.297,0.611l0.073,7.15c0.004,0.339,0.231,0.636,0.558,0.726    l8.058,2.235c0.067,0.019,0.136,0.028,0.204,0.028c0.165,0,0.327-0.053,0.461-0.155c0.189-0.144,0.301-0.368,0.301-0.606v-7.15    C22.16,34.472,21.931,34.171,21.6,34.08z M20.637,40.963l-6.54-1.814l-0.057-5.567l6.597,1.813V40.963z M21.6,45.215L13.47,42.98    c-0.23-0.063-0.477-0.015-0.667,0.131c-0.189,0.146-0.299,0.372-0.297,0.611l0.073,7.15c0.004,0.339,0.231,0.636,0.558,0.726    l8.058,2.235c0.067,0.019,0.136,0.028,0.204,0.028c0.165,0,0.327-0.053,0.461-0.155c0.189-0.144,0.301-0.368,0.301-0.606v-7.15    C22.16,45.607,21.931,45.306,21.6,45.215z M20.637,52.097l-6.54-1.814l-0.057-5.567l6.597,1.813V52.097z"/></g></g><text x="0" y="115" fill="#000000" font-size="5px" font-weight="bold" font-family="'Helvetica Neue', Helvetica, Arial-Unicode, Arial, Sans-serif">Created by Tomek Wołoszyn</text><text x="0" y="120" fill="#000000" font-size="5px" font-weight="bold" font-family="'Helvetica Neue', Helvetica, Arial-Unicode, Arial, Sans-serif">from the Noun Project</text></svg>