<svg xmlns="http://www.w3.org/2000/svg" data-name="Layer 1" viewBox="0 0 100 125" x="0px" y="0px"><title>Building Icons</title><path d="M50,80H9a2,2,0,0,1-2-2V36a2,2,0,0,1,1.14-1.81l21-10a2,2,0,0,1,1.75,0l20,10a2,2,0,0,1-1.79,3.58L30,28.23l-19,9V76H50a2,2,0,0,1,0,4Z"/><path d="M28,80H16a2,2,0,0,1-2-2V58a2,2,0,0,1,2-2H28a2,2,0,0,1,2,2V78A2,2,0,0,1,28,80ZM18,76h8V60H18Z"/><path d="M14,35a2,2,0,0,1-2-2V23a2,2,0,0,1,2-2h8a2,2,0,0,1,2,2v6a2,2,0,0,1-4,0V25H16v8A2,2,0,0,1,14,35Z"/><path d="M91,80H50a2,2,0,0,1,0-4H89V37.26l-19-9L50.89,37.79a2,2,0,0,1-1.79-3.58l20-10a2,2,0,0,1,1.75,0l21,10A2,2,0,0,1,93,36V78A2,2,0,0,1,91,80Z"/><path d="M84,80H72a2,2,0,0,1-2-2V58a2,2,0,0,1,2-2H84a2,2,0,0,1,2,2V78A2,2,0,0,1,84,80ZM74,76h8V60H74Z"/><path d="M86,35a2,2,0,0,1-2-2V25H80v4a2,2,0,0,1-4,0V23a2,2,0,0,1,2-2h8a2,2,0,0,1,2,2V33A2,2,0,0,1,86,35Z"/><path d="M50,80a2,2,0,0,1-2-2V36a2,2,0,0,1,4,0V78A2,2,0,0,1,50,80Z"/><path d="M43,69H34a2,2,0,0,1-2-2V58a2,2,0,0,1,2-2h9a2,2,0,0,1,2,2v9A2,2,0,0,1,43,69Zm-7-4h5V60H36Z"/><path d="M66,69H57a2,2,0,0,1-2-2V58a2,2,0,0,1,2-2h9a2,2,0,0,1,2,2v9A2,2,0,0,1,66,69Zm-7-4h5V60H59Z"/><path d="M84,54H72a2,2,0,0,1-2-2V43a2,2,0,0,1,2-2H84a2,2,0,0,1,2,2v9A2,2,0,0,1,84,54ZM74,50h8V45H74Z"/><path d="M66,54H57a2,2,0,0,1-2-2V43a2,2,0,0,1,2-2h9a2,2,0,0,1,2,2v9A2,2,0,0,1,66,54Zm-7-4h5V45H59Z"/><path d="M43,54H34a2,2,0,0,1-2-2V43a2,2,0,0,1,2-2h9a2,2,0,0,1,2,2v9A2,2,0,0,1,43,54Zm-7-4h5V45H36Z"/><path d="M28,54H16a2,2,0,0,1-2-2V43a2,2,0,0,1,2-2H28a2,2,0,0,1,2,2v9A2,2,0,0,1,28,54ZM18,50h8V45H18Z"/><text x="0" y="115" fill="#000000" font-size="5px" font-weight="bold" font-family="'Helvetica Neue', Helvetica, Arial-Unicode, Arial, Sans-serif">Created by Blair Adams</text><text x="0" y="120" fill="#000000" font-size="5px" font-weight="bold" font-family="'Helvetica Neue', Helvetica, Arial-Unicode, Arial, Sans-serif">from the Noun Project</text></svg>