<svg xmlns="http://www.w3.org/2000/svg" xmlns:xlink="http://www.w3.org/1999/xlink" version="1.1" x="0px" y="0px" viewBox="0 0 64 80" enable-background="new 0 0 64 64" xml:space="preserve"><g><g><g><path d="M1.001,15.5c-0.313,0-0.621-0.146-0.816-0.421c-0.319-0.45-0.214-1.075,0.236-1.394l15.5-11     c0.451-0.319,1.075-0.214,1.395,0.237c0.319,0.45,0.214,1.075-0.236,1.394l-15.5,11C1.403,15.44,1.201,15.5,1.001,15.5z"/></g><g><path d="M31.999,15.5c-0.2,0-0.402-0.06-0.578-0.185l-15.5-11c-0.45-0.319-0.556-0.944-0.236-1.394     c0.32-0.451,0.943-0.556,1.395-0.237l15.5,11c0.45,0.319,0.556,0.944,0.236,1.394C32.62,15.354,32.313,15.5,31.999,15.5z"/></g><g><path d="M1.001,19.5c-0.313,0-0.621-0.146-0.816-0.421c-0.319-0.45-0.214-1.075,0.236-1.394l15.5-11     c0.451-0.319,1.075-0.214,1.395,0.237c0.319,0.45,0.214,1.075-0.236,1.394l-15.5,11C1.403,19.44,1.201,19.5,1.001,19.5z"/></g><g><path d="M31.999,19.5c-0.2,0-0.402-0.06-0.578-0.185l-15.5-11c-0.45-0.319-0.556-0.944-0.236-1.394     c0.32-0.451,0.943-0.556,1.395-0.237l15.5,11c0.45,0.319,0.556,0.944,0.236,1.394C32.62,19.354,32.313,19.5,31.999,19.5z"/></g><g><path d="M1,19.5c-0.553,0-1-0.448-1-1v-4c0-0.552,0.447-1,1-1s1,0.448,1,1v4C2,19.052,1.553,19.5,1,19.5z"/></g><g><path d="M32,19.5c-0.553,0-1-0.448-1-1v-4c0-0.552,0.447-1,1-1s1,0.448,1,1v4C33,19.052,32.553,19.5,32,19.5z"/></g><g><path d="M32.001,15.5c-0.313,0-0.621-0.146-0.816-0.421c-0.319-0.45-0.214-1.075,0.236-1.394l15.5-11     c0.451-0.319,1.074-0.214,1.395,0.237c0.319,0.45,0.214,1.075-0.236,1.394l-15.5,11C32.403,15.44,32.201,15.5,32.001,15.5z"/></g><g><path d="M62.999,15.5c-0.2,0-0.402-0.06-0.578-0.185l-15.5-11c-0.45-0.319-0.556-0.944-0.236-1.394     c0.32-0.451,0.943-0.556,1.395-0.237l15.5,11c0.45,0.319,0.556,0.944,0.236,1.394C63.62,15.354,63.313,15.5,62.999,15.5z"/></g><g><path d="M32.001,19.5c-0.313,0-0.621-0.146-0.816-0.421c-0.319-0.45-0.214-1.075,0.236-1.394l15.5-11     c0.451-0.319,1.074-0.214,1.395,0.237c0.319,0.45,0.214,1.075-0.236,1.394l-15.5,11C32.403,19.44,32.201,19.5,32.001,19.5z"/></g><g><path d="M62.999,19.5c-0.2,0-0.402-0.06-0.578-0.185l-15.5-11c-0.45-0.319-0.556-0.944-0.236-1.394     c0.32-0.451,0.943-0.556,1.395-0.237l15.5,11c0.45,0.319,0.556,0.944,0.236,1.394C63.62,19.354,63.313,19.5,62.999,19.5z"/></g><g><path d="M32,61.5c-0.553,0-1-0.447-1-1v-46c0-0.552,0.447-1,1-1s1,0.448,1,1v46C33,61.053,32.553,61.5,32,61.5z"/></g><g><path d="M63,19.5c-0.553,0-1-0.448-1-1v-4c0-0.552,0.447-1,1-1s1,0.448,1,1v4C64,19.052,63.553,19.5,63,19.5z"/></g><g><path d="M63,61.5c-0.553,0-1-0.447-1-1v-42c0-0.552,0.447-1,1-1s1,0.448,1,1v42C64,61.053,63.553,61.5,63,61.5z"/></g><g><path d="M1,61.5c-0.553,0-1-0.447-1-1v-42c0-0.552,0.447-1,1-1s1,0.448,1,1v42C2,61.053,1.553,61.5,1,61.5z"/></g><g><path d="M39,61.5H25c-0.553,0-1-0.447-1-1v-15c0-0.553,0.447-1,1-1h14c0.553,0,1,0.447,1,1v15C40,61.053,39.553,61.5,39,61.5z      M26,59.5h12v-13H26V59.5z"/></g><g><path d="M35.03,53.5c-0.553,0-1.005-0.447-1.005-1s0.442-1,0.994-1h0.011c0.552,0,1,0.447,1,1S35.582,53.5,35.03,53.5z"/></g><g><path d="M29.03,53.5c-0.553,0-1.005-0.447-1.005-1s0.442-1,0.994-1h0.011c0.552,0,1,0.447,1,1S29.582,53.5,29.03,53.5z"/></g><g><path d="M63,38.5H1c-0.553,0-1-0.447-1-1s0.447-1,1-1h62c0.553,0,1,0.447,1,1S63.553,38.5,63,38.5z"/></g><g><path d="M23,23c-0.553,0-1-0.448-1-1c0-3.033-2.468-5.5-5.5-5.5S11,18.967,11,22c0,0.552-0.447,1-1,1s-1-0.448-1-1     c0-4.136,3.364-7.5,7.5-7.5S24,17.864,24,22C24,22.552,23.553,23,23,23z"/></g><g><path d="M5,38.5c-0.553,0-1-0.447-1-1v-9c0-0.552,0.447-1,1-1s1,0.448,1,1v9C6,38.053,5.553,38.5,5,38.5z"/></g><g><path d="M9,38.5c-0.553,0-1-0.447-1-1v-9c0-0.552,0.447-1,1-1s1,0.448,1,1v9C10,38.053,9.553,38.5,9,38.5z"/></g><g><path d="M14,38.5c-0.553,0-1-0.447-1-1v-9c0-0.552,0.447-1,1-1s1,0.448,1,1v9C15,38.053,14.553,38.5,14,38.5z"/></g><g><path d="M19,38.5c-0.553,0-1-0.447-1-1v-9c0-0.552,0.447-1,1-1s1,0.448,1,1v9C20,38.053,19.553,38.5,19,38.5z"/></g><g><path d="M24,38.5c-0.553,0-1-0.447-1-1v-9c0-0.552,0.447-1,1-1s1,0.448,1,1v9C25,38.053,24.553,38.5,24,38.5z"/></g><g><path d="M28,38.5c-0.553,0-1-0.447-1-1v-9c0-0.552,0.447-1,1-1s1,0.448,1,1v9C29,38.053,28.553,38.5,28,38.5z"/></g><g><path d="M28,29.5H5c-0.553,0-1-0.448-1-1s0.447-1,1-1h23c0.553,0,1,0.448,1,1S28.553,29.5,28,29.5z"/></g><g><path d="M10,29.5c-0.553,0-1-0.448-1-1V22c0-0.552,0.447-1,1-1s1,0.448,1,1v6.5C11,29.052,10.553,29.5,10,29.5z"/></g><g><path d="M23,29.5c-0.553,0-1-0.448-1-1V22c0-0.552,0.447-1,1-1s1,0.448,1,1v6.5C24,29.052,23.553,29.5,23,29.5z"/></g><g><path d="M23,23.5H10c-0.553,0-1-0.448-1-1s0.447-1,1-1h13c0.553,0,1,0.448,1,1S23.553,23.5,23,23.5z"/></g><g><path d="M54,23c-0.553,0-1-0.448-1-1c0-3.033-2.468-5.5-5.5-5.5S42,18.967,42,22c0,0.552-0.447,1-1,1s-1-0.448-1-1     c0-4.136,3.364-7.5,7.5-7.5S55,17.864,55,22C55,22.552,54.553,23,54,23z"/></g><g><path d="M36,38.5c-0.553,0-1-0.447-1-1v-9c0-0.552,0.447-1,1-1s1,0.448,1,1v9C37,38.053,36.553,38.5,36,38.5z"/></g><g><path d="M40,38.5c-0.553,0-1-0.447-1-1v-9c0-0.552,0.447-1,1-1s1,0.448,1,1v9C41,38.053,40.553,38.5,40,38.5z"/></g><g><path d="M45,38.5c-0.553,0-1-0.447-1-1v-9c0-0.552,0.447-1,1-1s1,0.448,1,1v9C46,38.053,45.553,38.5,45,38.5z"/></g><g><path d="M50,38.5c-0.553,0-1-0.447-1-1v-9c0-0.552,0.447-1,1-1s1,0.448,1,1v9C51,38.053,50.553,38.5,50,38.5z"/></g><g><path d="M55,38.5c-0.553,0-1-0.447-1-1v-9c0-0.552,0.447-1,1-1s1,0.448,1,1v9C56,38.053,55.553,38.5,55,38.5z"/></g><g><path d="M59,38.5c-0.553,0-1-0.447-1-1v-9c0-0.552,0.447-1,1-1s1,0.448,1,1v9C60,38.053,59.553,38.5,59,38.5z"/></g><g><path d="M59,29.5H36c-0.553,0-1-0.448-1-1s0.447-1,1-1h23c0.553,0,1,0.448,1,1S59.553,29.5,59,29.5z"/></g><g><path d="M41,29.5c-0.553,0-1-0.448-1-1V22c0-0.552,0.447-1,1-1s1,0.448,1,1v6.5C42,29.052,41.553,29.5,41,29.5z"/></g><g><path d="M54,29.5c-0.553,0-1-0.448-1-1V22c0-0.552,0.447-1,1-1s1,0.448,1,1v6.5C55,29.052,54.553,29.5,54,29.5z"/></g><g><path d="M54,23.5H41c-0.553,0-1-0.448-1-1s0.447-1,1-1h13c0.553,0,1,0.448,1,1S54.553,23.5,54,23.5z"/></g><g><path d="M58,53.5H43c-0.553,0-1-0.447-1-1v-10c0-0.553,0.447-1,1-1h15c0.553,0,1,0.447,1,1v10C59,53.053,58.553,53.5,58,53.5z      M44,51.5h13v-8H44V51.5z"/></g><g><path d="M58,48.5H43c-0.553,0-1-0.447-1-1s0.447-1,1-1h15c0.553,0,1,0.447,1,1S58.553,48.5,58,48.5z"/></g><g><path d="M48,53.5c-0.553,0-1-0.447-1-1v-10c0-0.553,0.447-1,1-1s1,0.447,1,1v10C49,53.053,48.553,53.5,48,53.5z"/></g><g><path d="M53,53.5c-0.553,0-1-0.447-1-1v-10c0-0.553,0.447-1,1-1s1,0.447,1,1v10C54,53.053,53.553,53.5,53,53.5z"/></g><g><path d="M21,53.5H6c-0.553,0-1-0.447-1-1v-10c0-0.553,0.447-1,1-1h15c0.553,0,1,0.447,1,1v10C22,53.053,21.553,53.5,21,53.5z      M7,51.5h13v-8H7V51.5z"/></g><g><path d="M21,48.5H6c-0.553,0-1-0.447-1-1s0.447-1,1-1h15c0.553,0,1,0.447,1,1S21.553,48.5,21,48.5z"/></g><g><path d="M11,53.5c-0.553,0-1-0.447-1-1v-10c0-0.553,0.447-1,1-1s1,0.447,1,1v10C12,53.053,11.553,53.5,11,53.5z"/></g><g><path d="M16,53.5c-0.553,0-1-0.447-1-1v-10c0-0.553,0.447-1,1-1s1,0.447,1,1v10C17,53.053,16.553,53.5,16,53.5z"/></g><g><path d="M63,61.5H1c-0.553,0-1-0.447-1-1s0.447-1,1-1h62c0.553,0,1,0.447,1,1S63.553,61.5,63,61.5z"/></g></g></g><text x="0" y="79" fill="#000000" font-size="5px" font-weight="bold" font-family="'Helvetica Neue', Helvetica, Arial-Unicode, Arial, Sans-serif">Created by lastspark</text><text x="0" y="84" fill="#000000" font-size="5px" font-weight="bold" font-family="'Helvetica Neue', Helvetica, Arial-Unicode, Arial, Sans-serif">from the Noun Project</text></svg>