<svg xmlns="http://www.w3.org/2000/svg" xmlns:xlink="http://www.w3.org/1999/xlink" version="1.1" x="0px" y="0px" viewBox="0 0 100 125" enable-background="new 0 0 100 100" xml:space="preserve"><path fill="#000000" d="M49.673,83.129c0.077,0.044,0.164,0.066,0.25,0.066s0.173-0.022,0.25-0.066l37.594-21.713  c0.155-0.09,0.25-0.255,0.25-0.434V43.639c0-0.179-0.095-0.344-0.25-0.433l-14.769-8.538v-6.236c0-0.179-0.096-0.344-0.25-0.434  l-9.414-5.419c-0.076-0.044-0.163-0.066-0.249-0.066c-0.087,0-0.173,0.022-0.251,0.067l-5.373,3.117l-4.207-2.447V22.47  c0-0.179-0.096-0.344-0.25-0.433l-9.394-5.419c-0.078-0.044-0.164-0.067-0.25-0.067c-0.086,0-0.172,0.022-0.25,0.066l-9.412,5.419  c-0.155,0.089-0.25,0.255-0.25,0.434v8.393L12.079,43.206c-0.155,0.089-0.25,0.254-0.25,0.433v17.344  c0,0.179,0.095,0.344,0.25,0.434L49.673,83.129z M43.36,17.339l8.894,5.13L43.36,27.6l-8.911-5.13L43.36,17.339z M63.086,23.303  l8.911,5.13l-8.912,5.13l-8.892-5.129l1.497-0.854c0,0,0,0,0.001,0l0,0l1.891-1.086c0.001,0,0.001,0,0.001,0l0.001-0.001  c0,0,0,0,0.001,0c0,0,0,0,0.001,0L63.086,23.303z M49.922,35.246l2.707,1.56c0.001,0,0.002,0,0.002,0s0,0,0.001,0.001l0.938,0.524  c0,0,0.001,0,0.001,0l5.265,3.043l-8.912,5.131l-8.893-5.13l2.456-1.415c0,0,0-0.001,0-0.001L49.922,35.246z M33.698,37.513  l-8.207,4.749l-1.376-0.798l9.583-5.548V37.513z M33.698,38.091v1.741c0,0.012,0.011,0.02,0.013,0.031  c0.004,0.033,0.019,0.056,0.035,0.085c0.017,0.029,0.03,0.054,0.057,0.074c0.009,0.007,0.01,0.021,0.021,0.026l6.456,3.734V50.8  L25.99,42.551L33.698,38.091z M50.173,45.939l8.912-5.131v6.074v4.205l-8.912,5.131V45.939z M53.441,30.751v5.936l-0.438-0.245  v-5.945L53.441,30.751z M53.692,28.144l-0.688-0.399v-1.578l2.061,1.195L53.692,28.144z M33.698,35.338l-10.208,5.91  c-0.02,0.012-0.023,0.036-0.039,0.051c-0.016,0.016-0.04,0.019-0.052,0.04c-0.006,0.011,0,0.023-0.004,0.034  c-0.013,0.031-0.012,0.058-0.012,0.091s0,0.061,0.012,0.091c0.004,0.011-0.002,0.023,0.004,0.034  c0.021,0.037,0.053,0.065,0.087,0.086c0.001,0.001,0.001,0.004,0.003,0.005l1.875,1.087c0,0,0,0,0.001,0l0.001,0c0,0,0,0,0,0  l15.036,8.681l9.394,5.418c0,0,0,0,0,0.001c0.038,0.021,0.081,0.033,0.125,0.033c0.043,0,0.086-0.012,0.124-0.033h0l9.303-5.356  l1.36,0.789l-10.788,6.236L20.366,41.464l13.333-7.705V35.338z M50.173,58.971l10.787-6.236v1.598L50.173,60.55V58.971z   M61.447,52.27c-0.003-0.022-0.008-0.039-0.017-0.061c-0.005-0.011,0.002-0.022-0.005-0.033c-0.006-0.011-0.019-0.011-0.025-0.021  c-0.014-0.018-0.026-0.03-0.045-0.044c-0.009-0.008-0.01-0.021-0.02-0.027l-1.751-1.014v-3.753l3.374,1.957c0.001,0,0.002,0,0.002,0  c0.037,0.021,0.08,0.033,0.124,0.033s0.087-0.012,0.124-0.033c0,0,0.001,0,0.002,0l3.412-1.977v1.742  c0,0.012,0.012,0.02,0.013,0.031c0.005,0.033,0.019,0.056,0.035,0.085s0.03,0.053,0.056,0.073c0.01,0.007,0.011,0.021,0.021,0.027  l1.501,0.871l-6.789,3.918v-1.743C61.46,52.289,61.449,52.281,61.447,52.27z M68.998,48.096l10.75-6.199v1.597l-10.75,6.199V48.096z   M68.748,47.662l-1.375-0.798l5.25-3.009l0,0c0,0,0,0,0,0l1.873-1.086l0,0l0.002-0.001l1.873-1.085l0,0l0.002-0.001  c0.002-0.001,0.002-0.003,0.004-0.004c0.034-0.021,0.065-0.049,0.088-0.086c0.006-0.011,0-0.023,0.004-0.034  c0.013-0.031,0.012-0.058,0.012-0.091s0.001-0.061-0.012-0.091c-0.004-0.011,0.002-0.023-0.004-0.034  c-0.012-0.02-0.036-0.024-0.052-0.04s-0.02-0.04-0.04-0.051l-3.625-2.103v-1.598l6.75,3.916L68.748,47.662z M72.748,41.898  l1.127,0.653l-1.127,0.654V41.898z M72.248,34.957v2.156v2.176v2.175v2.03l-5.5,3.152c0,0,0,0,0,0l0,0l-3.413,1.977V33.996  l8.913-5.131V34.957z M55.566,27.075l-2.562-1.486v-1.615l3.956,2.301L55.566,27.075z M52.504,23.539v2.193v2.156v2.175v6.093  l-2.456-1.416c-0.01-0.006-0.022,0-0.033-0.004c-0.032-0.013-0.06-0.012-0.094-0.012c-0.033,0-0.06,0-0.09,0.013  c-0.011,0.004-0.022-0.002-0.033,0.004l-6.188,3.572V28.033l8.894-5.131V23.539z M33.698,33.182l-13.957,8.065  c-0.01,0.006-0.011,0.019-0.021,0.026c-0.018,0.014-0.031,0.026-0.044,0.044c-0.007,0.01-0.021,0.01-0.026,0.021  c-0.006,0.011,0,0.022-0.004,0.033c-0.009,0.021-0.014,0.038-0.017,0.061c-0.001,0.012-0.013,0.019-0.013,0.031v2.175  c0,0.012,0.011,0.02,0.013,0.031c0.004,0.033,0.019,0.056,0.035,0.085c0.017,0.029,0.03,0.054,0.057,0.074  c0.009,0.007,0.01,0.021,0.021,0.026l30.057,17.344h0c0.038,0.021,0.081,0.033,0.125,0.033c0.043,0,0.086-0.012,0.124-0.033  c0,0,0,0,0.001,0l11.287-6.506c0.001,0,0.001-0.001,0.001-0.001l7.534-4.349c0.001,0,0.001,0,0.001,0c0.001,0,0.002,0,0.002,0  l11.25-6.487c0.011-0.006,0.012-0.02,0.021-0.027c0.025-0.02,0.039-0.044,0.055-0.073c0.018-0.029,0.031-0.053,0.036-0.085  c0.001-0.012,0.013-0.019,0.013-0.031v-2.175c0-0.012-0.012-0.02-0.013-0.031c-0.003-0.022-0.007-0.039-0.017-0.06  c-0.004-0.011,0.002-0.023-0.004-0.034s-0.02-0.012-0.027-0.021c-0.014-0.018-0.025-0.03-0.043-0.043  c-0.01-0.007-0.011-0.021-0.021-0.027l-7.375-4.278V35.39l14.27,8.249L49.923,65.043L12.829,43.639l20.87-12.055V33.182z   M87.267,60.838L50.173,82.262V65.477l37.094-21.405V60.838z"/><text x="0" y="115" fill="#000000" font-size="5px" font-weight="bold" font-family="'Helvetica Neue', Helvetica, Arial-Unicode, Arial, Sans-serif">Created by Lluisa Iborra</text><text x="0" y="120" fill="#000000" font-size="5px" font-weight="bold" font-family="'Helvetica Neue', Helvetica, Arial-Unicode, Arial, Sans-serif">from the Noun Project</text></svg>