<svg xmlns="http://www.w3.org/2000/svg" xmlns:xlink="http://www.w3.org/1999/xlink" version="1.1" x="0px" y="0px" viewBox="0 0 64 64" style="enable-background:new 0 0 64 64;" xml:space="preserve"><polygon points="30,58 4,58 4,4 42,4 42,30 44,30 44,2 2,2 2,60 30,60 "/><path d="M32,32v30h30V32H32z M60,46H48V34h12V46z M46,34v12H34V34H46z M34,48h12v12H34V48z M48,60V48h12v12H48z"/><polygon points="44,39 41,39 41,36 39,36 39,39 36,39 36,41 39,41 39,44 41,44 41,41 44,41 "/><polygon points="43.5,51.9 42.1,50.5 40,52.6 37.9,50.5 36.5,51.9 38.6,54 36.5,56.1 37.9,57.5 40,55.4 42.1,57.5 43.5,56.1   41.4,54 "/><g><rect x="50" y="39" width="8" height="2"/></g><g><rect x="50" y="51" width="8" height="2"/></g><g><rect x="50" y="55" width="8" height="2"/></g><rect x="6" y="6" width="12" height="2"/><rect x="6" y="10" width="16" height="2"/><path d="M6,14v42h24v-2h-6V22h14v8h2V14H6z M22,16v4H8v-4H22z M22,54H8V22h14V54z M24,20v-4h14v4H24z"/><rect x="10" y="24" width="10" height="2"/><rect x="26" y="24" width="10" height="2"/><rect x="10" y="28" width="10" height="2"/><rect x="10" y="32" width="10" height="2"/><rect x="10" y="36" width="10" height="2"/><rect x="10" y="40" width="10" height="2"/><rect x="10" y="44" width="10" height="2"/><rect x="10" y="48" width="10" height="2"/><rect x="26" y="28" width="10" height="2"/><rect x="26" y="32" width="4" height="2"/><rect x="26" y="36" width="4" height="2"/><rect x="26" y="40" width="4" height="2"/><rect x="26" y="44" width="4" height="2"/><rect x="26" y="48" width="4" height="2"/></svg>