<svg xmlns="http://www.w3.org/2000/svg" xmlns:xlink="http://www.w3.org/1999/xlink" version="1.1" x="0px" y="0px" viewBox="0 0 512 640" enable-background="new 0 0 512 512" xml:space="preserve"><path d="M460.553,400.301h-29.309v-19.016c0-3.881-3.146-7.025-7.025-7.025H87.781c-3.88,0-7.025,3.145-7.025,7.025v19.016H51.447  c-3.88,0-7.025,3.145-7.025,7.023v19.017h423.156v-19.017C467.578,403.445,464.433,400.301,460.553,400.301z"/><path d="M106.509,348.22c3.755,0,6.798-3.044,6.798-6.798V225.719c0-3.754-3.043-6.797-6.798-6.797H87.553  c-3.754,0-6.797,3.043-6.797,6.797v115.703c0,3.754,3.043,6.798,6.797,6.798H106.509z"/><path d="M212.068,348.22c3.753,0,6.797-3.044,6.797-6.798V225.719c0-3.754-3.044-6.797-6.797-6.797h-18.956  c-3.754,0-6.798,3.043-6.798,6.797v115.703c0,3.754,3.044,6.798,6.798,6.798H212.068z"/><path d="M424.447,348.22c3.753,0,6.797-3.044,6.797-6.798V225.719c0-3.754-3.044-6.797-6.797-6.797H405.49  c-3.754,0-6.797,3.043-6.797,6.797v115.703c0,3.754,3.043,6.798,6.797,6.798H424.447z"/><path d="M317.627,348.22c3.754,0,6.797-3.044,6.797-6.798V225.719c0-3.754-3.043-6.797-6.797-6.797H298.67  c-3.754,0-6.797,3.043-6.797,6.797v115.703c0,3.754,3.043,6.798,6.797,6.798H317.627z"/><path d="M463.178,161.128L269.464,88.113c-8.678-3.271-18.25-3.271-26.928,0L48.822,161.128c-2.647,0.998-4.4,3.531-4.4,6.36v18.596  c0,3.754,3.044,6.797,6.798,6.797H256h204.78c3.754,0,6.798-3.043,6.798-6.797v-18.596  C467.578,164.659,465.825,162.125,463.178,161.128z M256,168.615c-15.302,0-27.707-12.404-27.707-27.706  c0-15.302,12.405-27.708,27.707-27.708s27.707,12.405,27.707,27.708C283.707,156.21,271.302,168.615,256,168.615z"/><text x="0" y="527" fill="#000000" font-size="5px" font-weight="bold" font-family="'Helvetica Neue', Helvetica, Arial-Unicode, Arial, Sans-serif">Created by Chanut is Industries</text><text x="0" y="532" fill="#000000" font-size="5px" font-weight="bold" font-family="'Helvetica Neue', Helvetica, Arial-Unicode, Arial, Sans-serif">from the Noun Project</text></svg>