<svg xmlns="http://www.w3.org/2000/svg" xmlns:xlink="http://www.w3.org/1999/xlink" version="1.1" x="0px" y="0px" viewBox="0 0 64 64" style="enable-background:new 0 0 64 64;" xml:space="preserve"><g><path d="M12,48c-3.3,0-6-2.7-6-6s2.7-6,6-6s6,2.7,6,6S15.3,48,12,48z M12,38c-2.2,0-4,1.8-4,4s1.8,4,4,4s4-1.8,4-4S14.2,38,12,38z"/></g><path d="M17,50H7c-2.8,0-5,2.2-5,5v7h2v-7c0-1.7,1.3-3,3-3h10c1.7,0,3,1.3,3,3v7h2v-7C22,52.2,19.8,50,17,50z"/><g><path d="M52,48c-3.3,0-6-2.7-6-6s2.7-6,6-6s6,2.7,6,6S55.3,48,52,48z M52,38c-2.2,0-4,1.8-4,4s1.8,4,4,4s4-1.8,4-4S54.2,38,52,38z"/></g><path d="M57,50H47c-2.8,0-5,2.2-5,5v7h2v-7c0-1.7,1.3-3,3-3h10c1.7,0,3,1.3,3,3v7h2v-7C62,52.2,59.8,50,57,50z"/><g><path d="M52,34.4L45.6,28H18.4L12,34.4V28H2V2h60v26H52V34.4z M17.6,26h28.8l3.6,3.6V26h10V4H4v22h10v3.6L17.6,26z"/></g><path d="M17,12h2c0-2.2-1.8-4-4-4V6h-2v2c-2.2,0-4,1.8-4,4s1.8,4,4,4v4c-1.1,0-2-0.9-2-2H9c0,2.2,1.8,4,4,4v2h2v-2c2.2,0,4-1.8,4-4  s-1.8-4-4-4v-4C16.1,10,17,10.9,17,12z M17,18c0,1.1-0.9,2-2,2v-4C16.1,16,17,16.9,17,18z M13,14c-1.1,0-2-0.9-2-2s0.9-2,2-2V14z"/><path d="M29,12h2c0-2.2-1.8-4-4-4V6h-2v2c-2.2,0-4,1.8-4,4s1.8,4,4,4v4c-1.1,0-2-0.9-2-2h-2c0,2.2,1.8,4,4,4v2h2v-2c2.2,0,4-1.8,4-4  s-1.8-4-4-4v-4C28.1,10,29,10.9,29,12z M29,18c0,1.1-0.9,2-2,2v-4C28.1,16,29,16.9,29,18z M25,14c-1.1,0-2-0.9-2-2s0.9-2,2-2V14z"/><path d="M41,12h2c0-2.2-1.8-4-4-4V6h-2v2c-2.2,0-4,1.8-4,4s1.8,4,4,4v4c-1.1,0-2-0.9-2-2h-2c0,2.2,1.8,4,4,4v2h2v-2c2.2,0,4-1.8,4-4  s-1.8-4-4-4v-4C40.1,10,41,10.9,41,12z M41,18c0,1.1-0.9,2-2,2v-4C40.1,16,41,16.9,41,18z M37,14c-1.1,0-2-0.9-2-2s0.9-2,2-2V14z"/><path d="M51,14v-4c1.1,0,2,0.9,2,2h2c0-2.2-1.8-4-4-4V6h-2v2c-2.2,0-4,1.8-4,4s1.8,4,4,4v4c-1.1,0-2-0.9-2-2h-2c0,2.2,1.8,4,4,4v2h2  v-2c2.2,0,4-1.8,4-4S53.2,14,51,14z M47,12c0-1.1,0.9-2,2-2v4C47.9,14,47,13.1,47,12z M51,20v-4c1.1,0,2,0.9,2,2S52.1,20,51,20z"/></svg>