<svg xmlns="http://www.w3.org/2000/svg" xmlns:xlink="http://www.w3.org/1999/xlink" version="1.1" x="0px" y="0px" viewBox="0 0 64 64" style="enable-background:new 0 0 64 64;" xml:space="preserve"><style type="text/css">
	.st0{display:none;}
	.st1{display:inline;}
	.st2{fill:none;stroke:#B3B3B3;stroke-width:0.1;stroke-miterlimit:10;}
</style><g class="st0"><g class="st1"><rect x="2" y="2" class="st2" width="60" height="60"/><line class="st2" x1="32" y1="2" x2="32" y2="62"/><line class="st2" x1="62" y1="32" x2="2" y2="32"/><line class="st2" x1="2" y1="2" x2="62" y2="62"/><rect x="10" y="10" class="st2" width="44" height="44"/><line class="st2" x1="62" y1="2" x2="2" y2="62"/><line class="st2" x1="2" y1="32" x2="32" y2="2"/><line class="st2" x1="32" y1="2" x2="62" y2="32"/><line class="st2" x1="62" y1="32" x2="32" y2="62"/><line class="st2" x1="32" y1="62" x2="2" y2="32"/><circle class="st2" cx="32" cy="32" r="21"/></g></g><circle cx="32" cy="43" r="1"/><path d="M59,2H5C3.3,2,2,3.3,2,5v40c0,1.7,1.3,3,3,3h22v8h-3c-2.8,0-5,2.2-5,5v1h26v-1c0-2.8-2.2-5-5-5h-3v-8h22c1.7,0,3-1.3,3-3V5  C62,3.3,60.7,2,59,2z M40,58c1.3,0,2.4,0.8,2.8,2H21.2c0.4-1.2,1.5-2,2.8-2H40z M29,56v-8h6v8H29z M60,45c0,0.6-0.4,1-1,1H5  c-0.6,0-1-0.4-1-1v-5h56V45z M8,38V8h48v30H8z M60,38h-2V6H6v32H4V5c0-0.6,0.4-1,1-1h54c0.6,0,1,0.4,1,1V38z"/><polygon points="12,34 12,10 10,10 10,36 54,36 54,34 "/><path d="M54,12c0-1.1-0.9-2-2-2s-2,0.9-2,2c0,0.4,0.1,0.7,0.3,1.1l-6.4,12c-0.2,0-0.3,0-0.4,0.1l-5.6-5.6c0-0.2,0.1-0.3,0.1-0.5  c0-1.1-0.9-2-2-2s-2,0.9-2,2c0,0.2,0,0.3,0.1,0.5l-5.6,5.6C28.3,25,28.2,25,28,25c-0.3,0-0.6,0.1-0.9,0.2L24,23.1V23  c0-1.1-0.9-2-2-2s-2,0.9-2,2c0,0.2,0,0.5,0.1,0.7L16.4,28c-0.1,0-0.2,0-0.4,0c-1.1,0-2,0.9-2,2s0.9,2,2,2s2-0.9,2-2  c0-0.2,0-0.5-0.1-0.7l3.8-4.4c0.1,0,0.2,0,0.4,0c0.3,0,0.6-0.1,0.9-0.2l3.1,2.1v0.1c0,1.1,0.9,2,2,2s2-0.9,2-2c0-0.2,0-0.3-0.1-0.5  l5.6-5.6c0.2,0,0.3,0.1,0.5,0.1s0.3,0,0.5-0.1l5.6,5.6c0,0.2-0.1,0.3-0.1,0.5c0,1.1,0.9,2,2,2s2-0.9,2-2c0-0.4-0.1-0.7-0.3-1.1  l6.4-12C53.1,14,54,13.1,54,12z"/><rect x="14" y="10" width="14" height="2"/><rect x="14" y="14" width="16" height="2"/></svg>