<svg xmlns="http://www.w3.org/2000/svg" xmlns:xlink="http://www.w3.org/1999/xlink" version="1.1" x="0px" y="0px" viewBox="0 0 64 64" style="enable-background:new 0 0 64 64;" xml:space="preserve"><path d="M36,57v-3h-3v-3h5v-2H26v2h5v3h-3v3H2v2h26v3h8v-3h26v-2H36z M34,60h-4v-4h4V60z"/><path d="M52,17L52,17c-1.3-2.5-3.8-4-6.5-4c-0.5,0-1,0.1-1.5,0.2C43.5,6.9,38.3,2,32,2c-5.9,0-10.9,4.3-11.8,10  c-1.1-0.7-2.4-1-3.7-1c-3.6,0-6.6,2.7-7.3,6.4C5,18.6,2,22.3,2,26.5C2,31.7,6.5,36,12,36h5.9c-0.2-0.6-0.4-1.3-0.5-2H12  c-4.4,0-8-3.4-8-7.5c0-3.5,2.6-6.6,6.3-7.3L11,19l0.1-0.7c0.3-3,2.7-5.3,5.5-5.3c1.4,0,2.8,0.6,3.8,1.7l1.7,1.8V14  c0-5.5,4.5-10,10-10s10,4.5,10,10c0,0.1,0,0.2,0,0.3L42,16.1l1.5-0.7c0.7-0.3,1.4-0.5,2.1-0.5c2.1,0,4.1,1.3,5,3.4l0.3,0.6l0.8-0.1  c0.1,0,0.3,0,0.4,0c4.4,0,8,3.4,8,7.5S56.4,34,52,34h-5.3c-0.1,0.7-0.3,1.4-0.5,2H52c5.5,0,10-4.3,10-9.5S57.5,17,52,17z"/><path d="M39.2,41.8c3.7-2.5,5.8-6.6,5.7-11c0-6.8-5.6-12.5-12.4-12.8c-3.6-0.2-7,1.1-9.5,3.6c-2.6,2.5-4,5.8-4,9.4  c0,4.3,2.1,8.3,5.7,10.8c0.8,0.5,1.3,1.5,1.3,2.5V45h-2v2h16v-2h-2v-0.8C38,43.2,38.5,42.3,39.2,41.8z M31,33c-1.1,0-2-0.9-2-2  s0.9-2,2-2V33z M36,44.2V45h-3v-4c2.2,0,4-1.8,4-4s-1.8-4-4-4v-4c1.1,0,2,0.9,2,2h2c0-2.2-1.8-4-4-4v-2h-2v2c-2.2,0-4,1.8-4,4  s1.8,4,4,4v4c-1.1,0-2-0.9-2-2h-2c0,2.2,1.8,4,4,4v4h-3v-0.8c0-1.7-0.8-3.2-2.2-4.1C22.8,38,21,34.6,21,31c0-3,1.2-5.8,3.4-7.9  s5-3.2,8.1-3.1c5.7,0.2,10.4,5.1,10.5,10.8c0.1,3.7-1.8,7.2-4.9,9.3C36.8,41,36,42.5,36,44.2z M33,39v-4c1.1,0,2,0.9,2,2  S34.1,39,33,39z"/></svg>