<svg xmlns="http://www.w3.org/2000/svg" xmlns:xlink="http://www.w3.org/1999/xlink" version="1.1" x="0px" y="0px" viewBox="0 0 64 64" style="enable-background:new 0 0 64 64;" xml:space="preserve"><g><path d="M12,14v-4c1.1,0,2,0.9,2,2h2c0-2.2-1.8-4-4-4V6h-2v2c-2.2,0-4,1.8-4,4s1.8,4,4,4v4c-1.1,0-2-0.9-2-2H6c0,2.2,1.8,4,4,4v2h2   v-2c2.2,0,4-1.8,4-4S14.2,14,12,14z M8,12c0-1.1,0.9-2,2-2v4C8.9,14,8,13.1,8,12z M12,20v-4c1.1,0,2,0.9,2,2S13.1,20,12,20z"/></g><g><path d="M54,42v-4c1.1,0,2,0.9,2,2h2c0-2.2-1.8-4-4-4v-2h-2v2c-2.2,0-4,1.8-4,4s1.8,4,4,4v4c-1.1,0-2-0.9-2-2h-2c0,2.2,1.8,4,4,4v2   h2v-2c2.2,0,4-1.8,4-4S56.2,42,54,42z M50,40c0-1.1,0.9-2,2-2v4C50.9,42,50,41.1,50,40z M54,48v-4c1.1,0,2,0.9,2,2S55.1,48,54,48z"/></g><g><rect x="18" y="6" width="26" height="2"/></g><g><rect x="18" y="10" width="26" height="2"/></g><g><rect x="18" y="14" width="26" height="2"/></g><g><rect x="18" y="18" width="26" height="2"/></g><g><rect x="18" y="22" width="26" height="2"/></g><g><rect x="20" y="34" width="26" height="2"/></g><g><rect x="20" y="38" width="26" height="2"/></g><g><rect x="20" y="42" width="26" height="2"/></g><g><rect x="20" y="46" width="26" height="2"/></g><g><rect x="20" y="50" width="26" height="2"/></g><g><path d="M2,33.8V2h46v26H11.3L2,33.8z M4,4v26.2l6.7-4.2H46V4H4z"/></g><g><path d="M62,61.8L52.7,56H16V30h46V61.8z M18,54h35.3l6.7,4.2V32H18V54z"/></g></svg>